<svg version="1.0" xmlns="http://www.w3.org/2000/svg"
 width="92.000000pt" height="74.000000pt" viewBox="0 0 92.000000 74.000000"
 preserveAspectRatio="xMidYMid meet">

<g transform="translate(0.000000,74.000000) scale(0.100000,-0.100000)"
fill="#000000" stroke="none">
<path d="M0 370 l0 -370 460 0 460 0 0 370 0 370 -460 0 -460 0 0 -370z m180
280 c0 -16 7 -20 30 -20 30 0 30 0 28 -52 -1 -41 -2 -45 -5 -18 -9 70 -53 73
-53 4 0 -19 -4 -34 -10 -34 -6 0 -10 27 -10 60 0 57 -1 60 -25 60 -24 0 -25
-3 -25 -60 0 -33 -4 -60 -10 -60 -6 0 -10 27 -10 60 0 55 -2 60 -22 62 -13 1
4 4 37 8 33 4 63 7 68 8 4 1 7 -7 7 -18z m158 -47 c3 -19 -2 -22 -34 -25 -36
-3 -37 -4 -20 -21 13 -12 22 -15 30 -7 7 5 16 7 19 4 12 -13 -4 -24 -34 -24
-38 0 -58 37 -41 76 10 21 18 25 45 22 24 -2 33 -8 35 -25z m122 -223 l0 -70
-35 0 c-25 0 -37 6 -46 22 l-12 22 -8 -22 c-10 -27 -59 -31 -80 -6 -11 14 -13
14 -21 0 -5 -9 -22 -16 -39 -16 -38 0 -58 37 -41 75 14 30 65 35 82 8 10 -17
10 -17 20 0 16 26 69 23 79 -5 l8 -22 12 22 c7 14 21 22 36 22 18 0 25 5 25
20 0 11 5 20 10 20 6 0 10 -30 10 -70z m320 50 c0 -14 7 -20 23 -20 30 0 47
-18 47 -50 0 -35 -17 -50 -57 -50 l-33 0 0 70 c0 40 4 70 10 70 6 0 10 -9 10
-20z m-623 -5 c8 -24 -4 -30 -22 -11 -25 25 -55 4 -55 -39 0 -35 22 -57 48
-48 18 7 15 31 -5 36 -11 3 -7 5 10 6 25 1 28 -2 25 -26 -2 -24 -8 -29 -36
-31 -18 -2 -40 2 -48 9 -17 14 -19 90 -2 107 18 18 77 15 85 -3z m384 -27 l12
-43 14 43 c8 23 19 42 24 42 4 0 15 -21 22 -47 l14 -47 11 47 c7 26 17 47 23
47 6 0 8 -8 5 -17 -3 -10 -10 -40 -17 -66 -13 -55 -30 -57 -43 -4 -5 20 -12
37 -16 37 -4 0 -11 -17 -16 -37 -5 -20 -14 -38 -21 -40 -11 -4 -18 14 -39 100
-11 45 14 31 27 -15z m207 -15 c3 -20 -1 -23 -27 -23 -33 0 -39 -8 -19 -28 8
-8 17 -8 31 -1 15 9 18 8 15 -3 -3 -7 -19 -13 -39 -13 -28 0 -35 4 -37 24 -2
12 -1 34 3 48 5 20 11 24 38 21 24 -2 33 -8 35 -25z m-408 -153 c0 -5 -4 -10
-10 -10 -5 0 -10 5 -10 10 0 6 5 10 10 10 6 0 10 -4 10 -10z m-186 -22 c16
-26 -4 -52 -43 -56 -25 -3 -31 -8 -31 -28 0 -13 -4 -24 -10 -24 -6 0 -10 29
-10 66 l0 65 41 -3 c27 -2 46 -9 53 -20z m422 -3 c9 -8 11 -15 5 -15 -15 0
-14 -63 1 -78 9 -9 7 -12 -10 -12 -19 0 -22 5 -22 45 0 25 -4 45 -10 45 -5 0
-10 -7 -10 -17 0 -15 -1 -15 -18 0 -22 20 -42 6 -42 -29 0 -29 20 -36 44 -15
17 15 18 15 15 -4 -3 -14 -13 -21 -36 -23 -28 -3 -33 1 -39 22 -5 22 -12 26
-40 26 -35 0 -42 -8 -22 -28 7 -7 17 -8 30 -1 14 7 18 6 18 -6 0 -18 -50 -21
-68 -3 -15 15 -15 61 0 76 18 18 56 15 67 -5 9 -17 10 -17 17 0 5 14 16 17 47
15 25 -1 42 3 45 10 5 16 10 15 28 -3z m-368 -19 c-12 -8 -18 -27 -18 -50 0
-20 -4 -36 -10 -36 -5 0 -10 23 -10 50 0 48 1 50 28 50 24 -1 25 -2 10 -14z
m98 -11 c11 -44 -3 -75 -34 -75 -35 0 -52 16 -52 50 0 34 17 50 52 50 21 0 29
-6 34 -25z m34 -45 c0 -63 -2 -70 -20 -70 -11 0 -20 5 -20 10 0 6 5 10 10 10
6 0 10 27 10 60 0 33 4 60 10 60 6 0 10 -30 10 -70z m285 -20 c3 -5 -1 -10 -9
-10 -9 0 -16 5 -16 10 0 6 4 10 9 10 6 0 13 -4 16 -10z"/>
<path d="M280 600 c0 -5 9 -10 20 -10 11 0 20 5 20 10 0 6 -9 10 -20 10 -11 0
-20 -4 -20 -10z"/>
<path d="M302 388 c-16 -16 -15 -43 2 -57 11 -9 18 -8 30 4 20 20 20 29 0 49
-19 19 -17 19 -32 4z"/>
<path d="M398 375 c-8 -18 -8 -28 1 -39 18 -22 41 -8 41 24 0 38 -27 47 -42
15z"/>
<path d="M196 375 c-8 -22 4 -45 24 -45 10 0 20 7 24 15 8 22 -4 45 -24 45
-10 0 -20 -7 -24 -15z"/>
<path d="M792 388 c-16 -16 -15 -43 1 -57 16 -13 37 4 37 30 0 25 -24 41 -38
27z"/>
<path d="M703 393 c-20 -7 -15 -23 7 -23 11 0 20 4 20 9 0 13 -12 19 -27 14z"/>
<path d="M80 190 c0 -23 5 -30 19 -30 10 0 24 7 31 15 16 19 -3 45 -31 45 -14
0 -19 -7 -19 -30z"/>
<path d="M390 175 c-11 -13 -8 -15 15 -15 23 0 26 2 15 15 -7 8 -14 15 -15 15
-1 0 -8 -7 -15 -15z"/>
<path d="M252 178 c-16 -16 -15 -43 1 -57 16 -13 37 4 37 30 0 25 -24 41 -38
27z"/>
</g>
</svg>
